# xmcd
#
# Track frame offsets: 
#        150
#        10582
#        22798
#        34732
#        46841
#        58820
#        68306
#        78672
#        90818
#        100777
#
# Disc length: 1530 seconds
#
# Revision: 0
# Processed by: cddbd v1.5.2PL0 Copyright (c) Steve Scherf et al.
# Submitted via: ExactAudioCopy v0.99pb5
#
DISCID=6005f80a
DTITLE=Crystal Gayle - We Should Be Together
DYEAR=1979
DGENRE=Country
TTITLE0=Sneakin' Out The Back Door
TTITLE1=You'll Be Loved Someday
TTITLE2=Beyond You
TTITLE3=The Best Thing In My Life
TTITLE4=Time Will Prove That I'm Right
TTITLE5=Your Kisses Will
TTITLE6=Your Old Cold Shoulder
TTITLE7=Through Believing In Love Songs
TTITLE8=Too Deep For Tears
TTITLE9=We Should Be Together
EXTD=
EXTT0=
EXTT1=
EXTT2=
EXTT3=
EXTT4=
EXTT5=
EXTT6=
EXTT7=
EXTT8=
EXTT9=
PLAYORDER=
